<?xml version="1.0" encoding="UTF-8"?>
<svg id="Camada_2" data-name="Camada 2" xmlns="http://www.w3.org/2000/svg" viewBox="0 0 198.43 106.36">
  <defs>
    <style>
      .cls-1 {
        fill-rule: evenodd;
      }

      .cls-1, .cls-2 {
        fill: #2a86c2;
      }
    </style>
  </defs>
  <g id="Camada_1-2" data-name="Camada 1">
    <g>
      <path class="cls-1" d="M158.52,88.19h-19.34v-4.15l.03-.04.15-.24.15-.25.14-.25.13-.25.12-.25.12-.26.11-.26.11-.26.1-.27.09-.27.08-.27.08-.27.07-.28.06-.28.06-.28.05-.29.04-.29.04-.29.03-.29.02-.29.02-.3v-.3s.01-.3.01-.3v-.3s-.01-.3-.01-.3l-.02-.3-.02-.29-.03-.29-.04-.29-.04-.29-.05-.28-.06-.28-.06-.28-.07-.28-.08-.27-.08-.27-.09-.27-.1-.27-.1-.26-.11-.26-.12-.26-.12-.25-.13-.25-.14-.25-.15-.24-.15-.24-.03-.04v-37.66l-7.32,4.35c-2.93,1.61-5.51,2.64-7.77,3.09v-20.21c8.86-5.16,15.12-12.15,18.76-20.98h15.67v88.19Z"/>
      <path class="cls-1" d="M39.63,80.61c-.78,1.01-1.68,1.96-2.69,2.83-3.51,3.04-7.53,4.55-12.07,4.55-2.65,0-5.13-.58-7.47-1.73-1.33-.65-2.71-1.7-4.12-3.18v22.4H0v-56.09h13.28v4.21c1.18-1.55,2.45-2.71,3.81-3.46,2.24-1.26,4.8-1.9,7.66-1.9,4.62,0,8.74,1.59,12.35,4.78.9.8,1.71,1.66,2.43,2.57l-.28.44-.3.5-.28.5-.27.51-.25.52-.24.53-.22.54-.21.54-.19.55-.18.56-.16.57-.15.57-.14.58-.12.59-.11.59-.09.6-.08.61-.06.62-.05.62-.04.63-.02.63v.64s0,.63,0,.63l.02.62.03.62.05.61.06.6.08.6.09.59.1.59.12.58.13.57.15.57.16.56.18.55.19.54.2.54.22.53.23.52.25.51.26.51.27.5.29.49.3.48.17.26h0ZM29.78,68.12c0-2.12-.66-3.96-1.99-5.51-1.68-1.99-3.84-2.98-6.46-2.98-2.36,0-4.37.82-6.01,2.46-1.64,1.64-2.45,3.64-2.45,6.04s.82,4.37,2.47,6.02c1.65,1.65,3.64,2.47,5.98,2.47,2.63,0,4.77-.99,6.42-2.98,1.36-1.61,2.03-3.45,2.03-5.51Z"/>
      <path class="cls-1" d="M81.7,86.76h-13.28v-4.12c-1.25,1.58-2.53,2.74-3.81,3.46-2.24,1.26-4.8,1.9-7.66,1.9-4.62,0-8.74-1.6-12.35-4.78-4.3-3.81-6.46-8.85-6.46-15.14s2.2-11.48,6.61-15.29c3.51-3.04,7.53-4.55,12.07-4.55,2.65,0,5.13.55,7.47,1.65,1.33.65,2.71,1.7,4.12,3.18v-3.67h13.28v7.18l-.17.26-.29.47-.27.48-.26.49-.25.49-.23.5-.22.51-.21.51-.19.52-.18.53-.17.53-.16.54-.14.55-.13.55-.12.56-.11.57-.09.57-.08.58-.07.58-.06.59-.04.6-.03.6-.02.61v.61s0,.28,0,.28v.28s.01.28.01.28v.28s.02.28.02.28l.02.27.02.27.02.27.03.27.03.27.03.27.03.27.04.27.04.27.04.26.05.27.05.26.05.26.05.26.06.26.06.26.06.26.07.26.07.26.07.25.08.25.08.25.08.25.09.25.09.25.09.25.09.24.14.35.15.36.15.35.16.35.17.34.17.34.18.33.18.33.19.33.19.32.2.32.11.16v5.1h0ZM68.83,68.08c0-2.35-.82-4.34-2.47-5.99-1.65-1.64-3.64-2.46-5.98-2.46-2.6,0-4.74.99-6.42,2.97-1.36,1.59-2.03,3.42-2.03,5.49s.67,3.89,2.03,5.49c1.65,1.98,3.79,2.97,6.42,2.97,2.36,0,4.37-.81,6.01-2.45,1.64-1.62,2.45-3.63,2.45-6.01h0ZM70.15,32.61l-12.79,11.26-6.1-4.51,10.48-12.73,8.41,5.98Z"/>
      <path class="cls-1" d="M123.5,88.09c-.1,1.86-.31,3.45-.6,4.77-.73,3.23-2.6,6.12-5.64,8.66-3.84,3.23-8.94,4.84-15.3,4.84s-11.96-1.76-15.91-5.29c-2.64-2.35-4.32-4.8-5.05-7.37-.07-.26-.18-.82-.32-1.69h14.85c.43,1.22,1,2.1,1.73,2.64,1.17.88,2.67,1.32,4.48,1.32,3.05,0,5.39-1.09,7.02-3.27,1.02-1.36,1.53-3.33,1.53-5.88v-3.55c-1.58,1.46-2.9,2.49-3.97,3.08-2.23,1.25-4.84,1.87-7.86,1.87-3.81,0-7.2-.98-10.2-2.94-3.08-2.01-5.28-4.76-6.63-8.25-.91-2.36-1.36-4.94-1.36-7.7,0-6.12,1.94-11.09,5.82-14.93,3.62-3.57,7.96-5.36,13.05-5.36,2.71,0,5.11.55,7.23,1.65,1.25.67,2.57,1.77,3.93,3.3v-3.88h13.28v17.25l-.03.02-.25.14-.25.14-.25.15-.24.15-.24.16-.24.17-.23.17-.23.18-.23.19-.22.19-.22.2-.22.21-.22.22-.2.21-.2.22-.19.22-.19.22-.18.23-.17.23-.17.23-.16.24-.15.24-.15.24-.14.25-.13.25-.13.25-.12.26-.11.26-.11.26-.1.26-.09.27-.09.27-.08.27-.07.28-.06.28-.06.28-.05.28-.04.29-.04.29-.03.29-.02.29-.02.3v.3s-.01.3-.01.3v.3s.01.3.01.3l.02.3.02.29.03.29.04.29.04.29.05.29.06.28.07.28.07.28.08.27.09.27.09.27.1.27.11.26.11.26.12.26.13.25.13.25.14.25.15.25.15.24.16.24.17.24.17.23.18.23.19.23.19.22.2.22.2.22.21.21.22.21.22.2.22.2.23.19.23.18.23.18.24.17.24.16.24.16.25.15.25.14.21.12h0ZM110.96,68.64c0-2.38-.81-4.43-2.43-6.15-1.64-1.72-3.63-2.57-5.99-2.57-2.64,0-4.8,1.02-6.49,3.05-1.33,1.64-1.99,3.53-1.99,5.66,0,2.39.82,4.44,2.46,6.13,1.64,1.7,3.64,2.56,6.02,2.56s4.33-.85,5.97-2.56c1.64-1.69,2.46-3.74,2.46-6.13Z"/>
      <path class="cls-1" d="M139.03,78.07c0,2.77-.96,5.12-2.91,7.04-1.92,1.95-4.27,2.91-7.04,2.91s-5.29-.96-7.27-2.91c-1.95-1.92-2.94-4.27-2.94-7.04s.99-5.09,2.94-7.01c1.98-1.89,4.38-2.86,7.27-2.86s5.12.96,7.04,2.86c1.95,1.92,2.91,4.24,2.91,7.01Z"/>
      <rect class="cls-2" x="162.57" y="45.56" width="5.93" height="25"/>
      <rect class="cls-2" x="172.54" y="33.22" width="5.93" height="37.33"/>
      <rect class="cls-2" x="182.52" y="16.56" width="5.93" height="54"/>
      <rect class="cls-2" x="192.49" width="5.93" height="70.55"/>
      <g>
        <path class="cls-2" d="M164.15,73.39h-1.59v-.85h4.1v.85h-1.58v5.01h-.94v-5.01Z"/>
        <path class="cls-2" d="M167.45,72.26h.91v2.35c.19-.54.69-.92,1.51-.92,1.22,0,1.87.66,1.87,2.2v2.51h-.91v-2.43c0-1.04-.39-1.49-1.25-1.49s-1.23.55-1.23,1.59v2.33h-.91v-6.13Z"/>
        <path class="cls-2" d="M172.54,76.08c0-1.42.95-2.4,2.34-2.4,1.47,0,2.36,1.08,2.25,2.64h-3.68c.03.9.59,1.41,1.49,1.41.65,0,1.07-.22,1.29-.66l.83.13c-.37.86-1.1,1.29-2.14,1.29-1.44,0-2.38-.95-2.38-2.4ZM176.28,75.6c-.06-.74-.57-1.21-1.38-1.21s-1.32.4-1.42,1.21h2.81Z"/>
        <path class="cls-2" d="M181.21,77.51v.87h-.91v-6.12h.91v2.4c.26-.63.91-.99,1.63-.99,1.14,0,2.13.81,2.13,2.4s-.99,2.42-2.12,2.42c-.73,0-1.38-.36-1.64-.99ZM184.07,76.08c0-1.01-.58-1.63-1.45-1.63s-1.43.61-1.43,1.63.58,1.64,1.45,1.64,1.43-.62,1.43-1.64Z"/>
        <path class="cls-2" d="M185.72,76.08c0-1.42.95-2.4,2.34-2.4,1.47,0,2.36,1.08,2.25,2.64h-3.68c.03.9.59,1.41,1.49,1.41.65,0,1.07-.22,1.29-.66l.83.13c-.37.86-1.1,1.29-2.14,1.29-1.44,0-2.38-.95-2.38-2.4ZM189.46,75.6c-.06-.74-.57-1.21-1.38-1.21s-1.32.4-1.42,1.21h2.81Z"/>
        <path class="cls-2" d="M190.84,77.28l.82-.23c.23.42.7.65,1.35.65.72,0,1.11-.23,1.11-.65,0-1.06-3.08-.1-3.08-2.04,0-.79.84-1.33,1.91-1.33.84,0,1.69.42,1.97,1.06l-.81.22c-.19-.34-.65-.53-1.14-.53-.65,0-1.04.22-1.04.6,0,1.05,3.11.08,3.11,2,0,.89-.78,1.45-2.02,1.45-1.04,0-1.89-.47-2.18-1.2Z"/>
        <path class="cls-2" d="M196.06,76.55v-2.08h-.67v-.7h.67v-.85l.91-.19v1.04h1.37v.7h-1.37v1.97c0,.95.25,1.29.95,1.29.09,0,.19-.02.37-.04l.12.7c-.18.04-.44.06-.63.06-1.19,0-1.73-.49-1.73-1.91Z"/>
        <path class="cls-2" d="M162.86,82.06h1.19v1.02c.23-.65.87-1.24,2.13-1.06l-.13,1.14c-1.35-.25-2,.48-2,1.96v2.99h-1.19v-6.05Z"/>
        <path class="cls-2" d="M166.32,85.09c0-1.86,1.25-3.14,3.06-3.14,1.93,0,3.09,1.42,2.94,3.45h-4.81c.04,1.17.77,1.84,1.95,1.84.85,0,1.4-.29,1.69-.87l1.09.17c-.49,1.12-1.44,1.69-2.8,1.69-1.88,0-3.11-1.25-3.11-3.14ZM171.21,84.47c-.08-.96-.74-1.58-1.81-1.58s-1.72.53-1.86,1.58h3.67Z"/>
        <path class="cls-2" d="M173.01,86.66l1.08-.3c.3.55.92.85,1.77.85.94,0,1.45-.3,1.45-.85,0-1.39-4.03-.13-4.03-2.67,0-1.04,1.1-1.74,2.5-1.74,1.1,0,2.21.55,2.57,1.39l-1.06.29c-.25-.44-.85-.7-1.49-.7-.85,0-1.35.29-1.35.78,0,1.38,4.06.11,4.06,2.61,0,1.16-1.03,1.89-2.65,1.89-1.37,0-2.48-.61-2.85-1.57Z"/>
        <path class="cls-2" d="M179.37,85.35v-3.29h1.19v3.2c0,1.31.48,1.94,1.62,1.94s1.61-.75,1.61-2.08v-3.05h1.19v6.05h-1.19v-1.1c-.26.75-.96,1.22-1.97,1.22-1.67,0-2.44-.97-2.44-2.88Z"/>
        <path class="cls-2" d="M186.42,80.1h1.2v8.02h-1.2v-8.02Z"/>
        <path class="cls-2" d="M189.37,85.7v-2.72h-.88v-.92h.88v-1.11l1.2-.25v1.36h1.79v.92h-1.79v2.58c0,1.25.33,1.68,1.25,1.68.12,0,.25-.02.49-.05l.16.92c-.23.05-.57.08-.83.08-1.56,0-2.26-.65-2.26-2.5Z"/>
        <path class="cls-2" d="M192.93,86.66l1.08-.3c.3.55.92.85,1.77.85.94,0,1.45-.3,1.45-.85,0-1.39-4.03-.13-4.03-2.67,0-1.04,1.1-1.74,2.5-1.74,1.1,0,2.21.55,2.57,1.39l-1.06.29c-.25-.44-.85-.7-1.49-.7-.85,0-1.35.29-1.35.78,0,1.38,4.06.11,4.06,2.61,0,1.16-1.03,1.89-2.65,1.89-1.37,0-2.48-.61-2.85-1.57Z"/>
      </g>
    </g>
  </g>
</svg>